<?xml version="1.0" standalone="no"?>
<!DOCTYPE svg PUBLIC "-//W3C//DTD SVG 20010904//EN"
 "http://www.w3.org/TR/2001/REC-SVG-20010904/DTD/svg10.dtd">
<svg version="1.0" xmlns="http://www.w3.org/2000/svg"
 width="629.000000pt" height="492.000000pt" viewBox="0 0 629.000000 492.000000"
 preserveAspectRatio="xMidYMid meet">
<metadata>
Created by potrace 1.16, written by Peter Selinger 2001-2019
</metadata>
<g transform="translate(0.000000,492.000000) scale(0.100000,-0.100000)"
fill="#000000" stroke="none">
<path d="M0 3525 c0 -910 4 -1395 10 -1395 6 0 10 68 11 178 2 309 7 607 14
938 6 283 5 322 -8 327 -14 5 -15 49 -11 362 2 195 8 404 14 463 5 59 10 133
10 165 0 49 3 57 18 57 11 0 27 9 37 20 10 11 24 20 32 20 9 0 13 15 13 49 0
36 4 51 16 55 20 8 84 -3 102 -17 9 -7 15 -2 23 20 5 17 21 36 34 43 18 9 25
22 25 42 0 38 19 44 64 17 35 -21 46 -22 160 -16 113 6 127 5 192 -18 38 -14
80 -25 94 -25 l25 -1 -25 -11 c-14 -5 -41 -12 -60 -14 -94 -11 -110 -20 -137
-71 -11 -22 -11 -22 10 -11 39 21 181 68 205 68 13 0 30 6 38 14 20 21 122 32
147 17 25 -16 37 -3 13 14 -36 27 21 62 71 43 25 -10 33 -8 56 12 59 51 73 50
-583 50 l-610 0 0 -1395z"/>
<path d="M2055 4910 c3 -5 12 -10 20 -10 8 0 18 -6 22 -14 4 -7 32 -25 62 -39
48 -23 57 -24 90 -13 50 18 154 -3 190 -38 14 -14 43 -32 63 -40 20 -9 39 -20
43 -26 8 -13 92 -13 97 0 2 6 15 4 32 -5 16 -9 36 -13 45 -10 9 2 22 1 30 -4
21 -13 81 9 81 31 0 12 7 18 24 18 33 0 57 10 50 21 -3 5 4 9 16 9 19 0 50 21
50 34 0 8 -214 1 -228 -8 -7 -4 -22 -4 -33 -1 -19 6 -20 3 -17 -27 3 -32 2
-33 -31 -30 -24 2 -44 13 -67 37 -24 26 -41 35 -64 35 -41 0 -71 16 -64 35 5
12 0 14 -25 9 -28 -6 -31 -4 -31 20 l0 26 -181 0 c-117 0 -178 -3 -174 -10z"/>
<path d="M3007 4913 c-4 -3 -7 -24 -7 -46 0 -33 3 -38 18 -32 32 12 37 10 40
-22 4 -45 31 -43 82 4 l41 36 37 -17 c35 -17 36 -18 17 -33 -19 -14 -19 -15 5
-8 14 4 39 13 55 20 17 7 37 16 45 19 8 3 4 4 -10 2 -14 -2 -34 -7 -45 -11
-11 -5 -2 6 19 24 29 23 46 30 65 26 23 -4 103 10 186 34 19 6 -76 9 -256 10
-157 1 -289 -2 -292 -6z"/>
<path d="M4545 4909 c147 -10 180 -16 194 -33 9 -11 6 -13 -13 -13 -13 0 -33
-10 -45 -22 l-21 -21 35 0 c26 0 35 4 35 17 0 9 3 13 6 10 4 -3 15 5 26 18 11
14 28 25 38 25 10 0 20 6 23 13 3 10 9 10 26 0 11 -7 45 -13 75 -13 43 0 61
-5 83 -24 l29 -24 23 24 c28 29 50 30 79 4 23 -22 70 -22 95 -1 28 23 86 6
131 -38 48 -47 66 -52 66 -16 0 14 4 25 9 25 14 0 21 -44 9 -51 -9 -6 -8 -12
1 -23 12 -14 16 -14 34 -1 12 8 30 15 40 15 11 0 32 11 49 25 25 21 33 23 51
13 33 -18 192 -14 247 7 79 29 90 30 90 6 0 -12 -13 -34 -29 -49 -28 -25 -57
-105 -45 -123 2 -4 25 -11 50 -15 25 -3 47 -12 49 -18 2 -6 9 -198 15 -426 5
-228 13 -485 16 -570 2 -85 9 -288 14 -450 13 -381 27 -770 39 -1040 6 -118
13 -305 16 -415 4 -110 10 -279 15 -375 5 -96 10 -222 10 -280 0 -75 5 -113
16 -135 10 -19 11 -31 5 -33 -6 -2 -11 -11 -11 -20 1 -15 2 -15 15 2 9 12 20
16 32 11 15 -6 15 -8 3 -13 -41 -15 -72 -112 -35 -112 9 0 12 -6 9 -15 -4 -8
-10 -12 -15 -9 -11 6 -11 6 1 -220 10 -200 9 -204 -55 -210 -39 -4 -61 -16
-29 -16 17 -1 18 -2 2 -13 -12 -10 -14 -17 -6 -31 7 -13 7 -30 -1 -58 l-12
-39 -97 4 c-105 5 -122 2 -122 -19 0 -21 -63 -17 -93 6 -29 23 -43 25 -50 7
-7 -19 -146 5 -163 28 -11 15 -13 14 -28 -6 -14 -21 -18 -21 -54 -11 -22 7
-51 12 -65 12 -14 0 -29 5 -32 11 -5 6 -11 4 -19 -7 -10 -13 -20 -15 -42 -10
-16 4 -47 10 -69 13 -22 3 -45 9 -51 14 -7 6 -18 1 -29 -11 -21 -24 -53 -25
-117 -5 -48 14 -56 13 -145 -19 -23 -9 -49 -13 -56 -10 -10 3 -18 -5 -25 -25
-13 -38 -16 -38 -49 -5 -27 27 -44 28 -188 9 -95 -13 -125 -13 -125 0 0 16
-22 25 -63 25 -18 0 -45 9 -62 20 -16 11 -38 20 -48 20 -23 0 -77 -40 -77 -57
0 -17 -11 -16 -45 1 -31 16 -122 12 -196 -9 -33 -9 -51 -10 -65 -2 -20 11 -53
17 -94 17 -31 0 -100 21 -100 30 0 8 -37 6 -46 -2 -3 -4 -12 -4 -20 -1 -12 4
-11 8 3 19 10 8 -18 -2 -62 -22 -44 -20 -100 -38 -123 -40 -24 -1 -52 -10 -62
-19 -10 -9 -30 -15 -46 -13 -22 2 -30 10 -38 36 -6 21 -17 34 -32 38 -12 3
-25 13 -28 22 -3 10 -9 23 -12 30 -9 19 14 14 36 -8 15 -15 27 -18 50 -14 37
8 50 24 18 23 -20 0 -63 7 -63 11 0 3 -42 11 -82 15 -24 2 -43 0 -43 -6 0 -9
20 -13 51 -11 14 1 15 -4 5 -39 l-10 -40 -51 3 -50 3 -3 58 c-3 60 -16 74 -32
33 -9 -24 -10 -24 -132 -23 l-123 2 -3 -34 -3 -34 -67 7 c-37 4 -107 9 -156
13 -82 6 -90 5 -105 -15 -16 -21 -18 -21 -126 -7 -61 7 -124 17 -140 22 -26 7
-20 9 40 14 51 5 41 6 -35 3 -58 -2 -141 -8 -185 -15 -44 -6 -104 -12 -134
-13 -46 -1 -57 -6 -76 -30 -22 -28 -25 -29 -57 -16 -18 7 -40 21 -48 31 -12
14 -32 19 -91 20 -42 1 -82 -1 -88 -5 -6 -4 -30 -1 -54 8 -32 12 -69 14 -157
11 -351 -13 -361 -14 -390 -32 -25 -14 -33 -15 -54 -3 -14 7 -23 18 -19 24 3
6 -4 1 -16 -11 -11 -12 -21 -26 -21 -31 0 -8 -54 -22 -87 -22 -7 0 -21 9 -31
21 l-20 20 -36 -42 c-20 -24 -36 -46 -36 -51 0 -4 -22 -8 -49 -8 -44 0 -51 4
-75 34 -45 60 -57 68 -85 61 -14 -4 -35 -17 -46 -30 -21 -25 -31 -28 -78 -26
-26 1 -28 4 -26 38 1 21 2 55 1 76 l-2 37 -55 0 c-47 0 -55 3 -55 18 0 20 -27
36 -73 46 l-27 6 0 -160 0 -160 3145 0 3145 0 0 196 c-1 108 -5 207 -11 220
-6 17 -6 23 1 19 7 -4 10 189 10 584 l-1 590 -27 4 -27 4 28 2 27 1 0 1650 0
1650 -932 -2 c-594 0 -889 -4 -813 -9z m1580 -742 c4 -56 6 -118 5 -137 -7
-89 0 -231 11 -224 8 4 8 0 0 -15 -12 -22 -6 -26 28 -22 7 2 10 -2 6 -8 -3 -6
-12 -11 -20 -11 -23 0 -23 19 -1 -666 4 -104 10 -213 15 -242 4 -28 4 -57 0
-64 -6 -8 -9 0 -9 23 0 19 -9 75 -19 123 -11 49 -17 94 -14 102 3 7 -2 28 -11
45 -9 18 -14 40 -11 49 20 62 8 491 -14 498 -14 5 -15 92 0 92 7 0 10 83 9
273 -2 311 -3 287 9 287 5 0 12 -46 16 -103z"/>
<path d="M2013 4122 c-18 -11 14 -70 48 -88 15 -7 46 -14 68 -14 51 0 86 -16
100 -46 l11 -24 -190 0 c-162 0 -190 -2 -190 -15 0 -10 10 -15 33 -15 29 0 34
-5 55 -50 13 -29 35 -56 52 -67 17 -9 30 -20 30 -23 0 -3 -23 -20 -51 -38 -32
-21 -49 -39 -47 -49 4 -23 92 -81 141 -94 41 -11 105 -8 140 6 15 6 17 1 17
-39 0 -44 1 -46 30 -46 l30 0 0 200 0 200 95 0 c52 0 94 -3 93 -7 -4 -15 14
-87 28 -114 13 -27 13 -28 -32 -50 -48 -22 -84 -68 -84 -105 0 -44 67 -100
141 -118 20 -4 29 -1 33 10 8 22 0 31 -34 39 -96 21 -106 115 -15 145 32 11
38 9 66 -14 39 -33 60 -33 98 0 35 29 61 28 104 -7 52 -40 23 -107 -53 -124
-34 -8 -42 -17 -34 -39 7 -19 38 -13 105 20 43 22 69 56 69 92 0 34 -40 83
-84 103 l-44 19 18 48 c11 26 22 59 25 75 l5 27 95 0 95 0 0 -200 0 -200 30 0
30 0 0 200 0 200 25 0 c16 0 25 6 25 15 0 9 -9 15 -25 15 -21 0 -25 5 -25 30
0 78 -52 130 -130 130 -65 0 -130 -47 -130 -93 0 -29 54 -19 58 10 7 49 85 70
122 33 14 -14 20 -33 20 -65 l0 -45 -349 0 -349 0 -12 34 c-17 51 -41 68 -114
75 -65 7 -106 29 -106 58 0 14 -18 17 -37 5z m217 -268 l0 -66 -70 4 c-50 3
-77 9 -97 24 -28 21 -73 80 -73 95 0 5 54 9 120 9 l120 0 0 -66z m500 44 c0
-33 -43 -119 -74 -147 l-26 -25 -30 29 c-28 27 -70 117 -70 150 0 12 19 15
100 15 97 0 100 -1 100 -22z m-500 -192 c0 -68 -14 -81 -90 -81 -46 0 -64 5
-99 29 -40 28 -41 30 -24 49 34 37 85 56 151 57 l62 0 0 -54z"/>
<path d="M3703 4096 c-29 -13 -63 -59 -63 -86 0 -5 14 -10 30 -10 22 0 30 5
30 18 0 31 37 62 74 62 46 0 66 -26 66 -83 l0 -47 -280 0 c-242 0 -280 -2
-280 -15 0 -13 29 -15 200 -15 l200 0 0 -80 0 -80 -110 0 -110 0 0 35 c0 23
-6 38 -15 41 -36 14 -120 -47 -113 -83 2 -13 14 -19 41 -21 34 -3 37 -6 37
-33 0 -64 69 -142 144 -164 89 -27 176 -13 176 27 0 17 -2 18 -30 3 -39 -20
-93 -19 -138 4 -46 23 -67 46 -87 94 -28 68 -30 67 120 67 l135 0 0 95 0 95
55 0 55 0 0 -200 0 -200 30 0 30 0 0 200 0 200 25 0 c16 0 25 6 25 15 0 9 -9
15 -25 15 -23 0 -25 4 -25 45 0 35 -6 52 -28 76 -24 27 -37 33 -83 36 -33 2
-66 -2 -86 -11z"/>
<path d="M4360 4085 c0 -21 5 -25 29 -25 34 0 85 -33 119 -77 l25 -33 -197 0
c-165 0 -196 -2 -196 -15 0 -10 15 -15 57 -17 l57 -3 18 -55 c21 -70 22 -114
2 -131 -25 -21 -55 -88 -52 -117 2 -19 11 -30 31 -36 41 -15 75 23 90 102 l12
62 92 0 93 0 0 -110 0 -110 25 0 25 0 0 200 0 200 205 0 205 0 0 -45 0 -45
-109 0 c-152 0 -191 -17 -191 -85 0 -40 16 -62 53 -74 25 -8 39 -23 55 -57 27
-55 79 -82 177 -91 56 -5 65 -4 65 11 0 12 -9 16 -37 16 -82 0 -141 33 -158
88 -6 22 -5 22 94 22 83 0 101 3 101 15 0 13 -21 15 -130 15 -117 0 -132 2
-150 20 -11 11 -20 27 -20 35 0 8 9 24 20 35 18 18 33 20 150 20 l130 0 0 60
0 60 65 0 65 0 0 -125 0 -125 25 0 25 0 0 125 0 125 30 0 c20 0 30 5 30 15 0
13 -46 15 -355 15 l-354 0 -30 43 c-55 79 -109 117 -167 117 -19 0 -24 -5 -24
-25z m180 -240 l0 -75 -98 0 -98 0 -12 53 c-6 28 -14 62 -18 75 -6 22 -6 22
110 22 l116 0 0 -75z"/>
<path d="M980 3935 c0 -11 13 -15 53 -15 l54 0 12 -41 c23 -75 29 -139 16
-147 -24 -14 -65 -85 -65 -113 0 -34 30 -54 67 -44 30 7 62 73 63 128 l0 37
95 0 95 0 0 -110 0 -110 30 0 30 0 0 200 0 200 60 0 60 0 0 -126 0 -125 28 3
27 3 3 123 3 122 29 0 c20 0 30 5 30 15 0 13 -23 15 -150 15 l-150 0 0 -90 0
-91 -97 3 -96 3 -14 58 c-7 31 -20 71 -28 87 -15 29 -18 30 -85 30 -56 0 -70
-3 -70 -15z"/>
<path d="M965 3646 c-8 -19 -15 -39 -15 -45 0 -5 -7 -32 -17 -60 -15 -49 -33
-68 -33 -36 0 8 -4 15 -10 15 -5 0 -10 -11 -10 -24 0 -13 -7 -26 -15 -30 -8
-3 -15 -10 -15 -16 0 -6 4 -9 9 -6 4 3 17 -1 27 -10 18 -15 18 -15 -2 -9 -17
4 -23 0 -26 -20 -3 -14 -1 -25 3 -25 5 0 9 5 9 10 0 6 5 10 10 10 6 0 10 -6
10 -14 0 -13 20 -26 41 -26 5 0 9 6 9 14 0 8 7 16 15 20 12 4 14 15 9 44 -4
29 -1 47 15 73 15 25 21 51 21 96 0 73 -14 89 -35 39z"/>
<path d="M828 3358 c-9 -7 -21 -31 -28 -52 -13 -42 -116 -479 -230 -976 -38
-168 -85 -368 -104 -446 -19 -78 -56 -242 -81 -365 -25 -123 -49 -227 -53
-231 -4 -4 -8 26 -10 65 -1 40 -4 86 -6 102 -3 17 -5 48 -6 70 -2 38 -2 39
-10 12 -5 -16 -5 -94 -1 -173 10 -189 2 -274 -54 -539 -25 -121 -51 -245 -57
-275 -6 -30 -17 -59 -25 -65 -7 -5 -17 -31 -22 -57 -7 -39 -6 -48 6 -48 8 0
11 -5 8 -11 -4 -6 -4 -26 -1 -45 5 -26 12 -34 27 -34 12 0 23 8 26 20 3 11 9
18 13 15 5 -3 6 5 2 17 -4 16 -2 19 8 13 7 -5 11 -4 7 1 -3 5 3 33 13 61 10
28 16 54 13 57 -3 3 3 30 12 61 12 38 21 52 26 43 6 -9 9 -4 9 14 0 15 5 30
10 33 6 3 7 17 4 31 -5 18 -2 24 10 24 10 0 16 9 16 23 0 12 9 56 20 96 12 41
17 77 12 80 -4 3 -5 17 -1 31 5 20 7 21 8 6 1 -14 4 -17 11 -10 6 6 15 50 20
98 6 49 15 96 20 106 6 10 10 30 10 44 0 13 4 26 10 28 5 2 14 32 19 68 10 72
32 150 42 150 4 0 5 10 2 23 -4 18 -3 19 6 7 8 -11 11 -2 11 38 0 33 4 51 10
47 6 -3 10 0 10 8 0 8 6 20 14 26 10 9 14 28 11 61 -1 27 1 66 7 87 5 21 34
142 63 268 30 127 81 345 115 485 55 233 139 589 176 750 9 36 14 83 12 104
-3 37 -6 40 -48 52 -56 17 -62 17 -82 2z m99 -95 c-3 -10 -26 -108 -52 -218
-26 -110 -90 -373 -141 -585 -52 -212 -113 -464 -135 -560 -32 -139 -156 -630
-267 -1063 -27 -105 -25 -50 3 70 68 295 100 430 141 593 24 96 71 288 104
425 33 138 67 273 74 300 8 28 24 96 37 152 12 56 25 101 28 98 4 -2 8 13 8
33 1 20 36 177 77 347 41 171 80 336 87 368 8 36 17 57 26 57 9 0 12 -7 10
-17z"/>
<path d="M60 2668 c0 -9 5 -20 10 -23 6 -3 10 -16 11 -28 0 -12 3 -17 5 -10 7
15 34 5 29 -10 -9 -25 -14 -96 -14 -215 -1 -96 -4 -122 -13 -116 -10 6 -10 5
-1 -7 12 -15 15 -111 3 -104 -3 2 -13 -3 -23 -10 -16 -12 -16 -13 3 -18 16 -4
20 -14 21 -49 1 -85 16 -85 23 1 3 45 15 104 25 131 20 51 17 68 -6 48 -12 -9
-13 -7 -9 13 6 28 17 77 23 99 11 38 15 270 5 270 -6 0 -13 -8 -15 -17 -3 -11
-5 -7 -6 10 -1 30 -27 38 -33 10 -3 -14 -7 -12 -21 12 -10 19 -16 24 -17 13z"/>
<path d="M1305 2490 c-100 -22 -161 -65 -207 -147 l-30 -53 -57 0 c-56 0 -58
-1 -74 -35 -9 -20 -17 -38 -17 -40 0 -3 25 -5 55 -5 30 0 55 -2 55 -5 0 -3
-52 -108 -115 -235 l-114 -230 69 0 69 0 115 235 115 235 335 0 c193 0 336 -4
336 -9 0 -14 -91 -132 -107 -138 -8 -3 -21 1 -31 10 -82 72 -245 74 -382 5
-70 -34 -120 -93 -120 -140 0 -40 45 -83 101 -98 57 -16 165 -7 252 20 38 12
71 19 73 17 4 -4 -10 -78 -22 -119 -5 -16 3 -18 64 -18 l70 0 11 50 c6 28 11
79 11 113 0 60 1 63 36 86 46 32 128 122 160 177 l26 44 299 0 c164 0 299 -4
299 -8 0 -13 -45 -70 -71 -90 -58 -46 -79 -51 -167 -39 -141 18 -272 -14 -272
-68 0 -45 121 -67 244 -46 78 14 99 9 113 -22 35 -76 -97 -135 -277 -124 -52
4 -117 13 -145 21 -69 22 -73 21 -90 -21 -18 -43 -15 -47 60 -63 268 -59 572
31 601 178 4 21 -1 36 -21 61 -15 17 -26 33 -24 35 2 2 15 9 29 16 48 25 100
74 131 122 l31 48 89 0 c49 0 89 -2 89 -5 0 -3 -29 -64 -65 -135 -36 -71 -65
-132 -65 -135 0 -3 29 -5 65 -5 l65 0 70 140 70 140 81 0 c54 0 78 -3 74 -11
-11 -17 4 -75 29 -112 l24 -35 -67 -26 c-36 -15 -77 -35 -90 -45 l-24 -18 21
-35 c27 -43 83 -81 152 -104 39 -13 70 -15 131 -11 43 4 79 3 79 -1 -1 -4 -7
-18 -15 -32 -8 -14 -14 -28 -15 -32 0 -5 29 -8 65 -8 l66 0 114 235 114 235
38 0 c35 0 41 4 56 35 9 20 17 38 17 40 0 3 -603 5 -1340 5 -737 0 -1340 3
-1340 7 0 3 12 26 26 51 28 48 71 72 126 72 58 0 79 -10 85 -42 6 -29 6 -29
72 -26 l66 3 3 32 c7 71 -42 104 -162 109 -45 2 -99 -1 -121 -6z m2335 -285
c0 -2 -12 -29 -27 -60 l-27 -55 -68 0 c-84 0 -143 22 -163 61 -31 58 -30 59
135 59 83 0 150 -2 150 -5z m-2096 -165 c28 -10 66 -45 66 -60 0 -5 -23 -21
-52 -36 -132 -67 -276 -23 -190 59 46 44 118 60 176 37z m1996 -34 c0 -2 -9
-24 -20 -49 -18 -39 -25 -46 -64 -56 -25 -6 -62 -11 -83 -11 -59 1 -149 47
-129 67 22 22 148 53 219 53 42 0 77 -2 77 -4z"/>
<path d="M4170 2250 l-20 -40 91 0 91 0 -7 -32 c-10 -49 -72 -134 -132 -181
-29 -23 -53 -48 -53 -56 0 -7 17 -30 38 -51 65 -66 163 -76 272 -29 l51 22 25
-24 c22 -20 35 -24 90 -23 35 0 64 0 64 -2 0 -1 -9 -23 -20 -48 l-19 -46 65 0
65 0 115 235 114 235 285 0 c157 0 285 -2 285 -5 0 -3 -13 -32 -30 -64 l-29
-59 -168 -4 c-193 -4 -239 -17 -289 -84 -24 -31 -29 -47 -29 -95 0 -47 4 -62
25 -84 99 -106 354 -113 448 -12 13 13 65 111 117 216 l94 191 46 0 c25 0 45
2 45 4 0 2 7 20 15 40 l15 36 -463 0 -463 0 -86 -179 c-85 -178 -86 -180 -126
-192 -50 -15 -88 -6 -95 22 -4 16 7 37 43 80 95 115 131 196 104 237 -14 21
-22 24 -55 19 -84 -11 -142 -88 -180 -235 -20 -79 -31 -94 -86 -118 -45 -20
-86 -17 -111 6 l-21 20 47 44 c84 79 139 197 124 271 l-4 25 -134 0 -134 0
-20 -40z m1300 -255 c0 -12 -73 -151 -88 -167 -33 -39 -168 -10 -206 43 -22
32 -20 81 4 107 19 21 30 22 155 22 74 0 135 -2 135 -5z"/>
</g>
</svg>
