<?xml version="1.0" encoding="UTF-8" standalone="no" ?>
<!DOCTYPE svg PUBLIC "-//W3C//DTD SVG 1.1//EN" "http://www.w3.org/Graphics/SVG/1.1/DTD/svg11.dtd">
<svg xmlns="http://www.w3.org/2000/svg" xmlns:xlink="http://www.w3.org/1999/xlink" version="1.1" width="377.60993652343745" height="210.728" xml:space="preserve">
<desc>Created with Fabric.js 1.6.0-rc.1</desc>
<defs></defs>
<g style="stroke: none; stroke-width: 1; stroke-dasharray: none; stroke-linecap: butt; stroke-linejoin: miter; stroke-miterlimit: 10; fill: none; fill-rule: nonzero; opacity: 1;" transform="translate(10 10) scale(0.36 0.36)" >
  <path d="M 491.108 285.12 l -224.422 68.395 h -21.373 h -0.001 L 20.892 285.12 l -10.687 32.06 l 224.422 68.395 l 0 0 c 0 11.805 9.569 21.374 21.374 21.374 l 0 0 c 11.805 0 21.373 -9.569 21.373 -21.374 l 0 0 l 224.422 -68.395 L 491.108 285.12 z" style="stroke: none; stroke-width: 1; stroke-dasharray: none; stroke-linecap: butt; stroke-linejoin: miter; stroke-miterlimit: 10; fill: #61B59B; fill-rule: nonzero; opacity: 1;" transform=" matrix(1 0 0 1 0 0) " stroke-linecap="round" />
  <path d="M 496.242 275.176 L 265.493 345.5 h -18.987 L 15.758 275.176 L 0 322.449 l 227.255 69.259 c 2.828 13.271 14.642 23.257 28.744 23.257 c 14.102 0 25.916 -9.986 28.744 -23.257 l 227.255 -69.259 L 496.242 275.176 z M 269.358 379.639 v 5.936 c 0 7.366 -5.992 13.358 -13.358 13.358 c -7.366 0 -13.358 -5.992 -13.358 -13.358 v -5.936 L 20.41 311.911 l 5.616 -16.848 l 216.952 66.118 l 1.142 0.348 h 23.761 l 218.094 -66.466 l 5.616 16.848 L 269.358 379.639 z" style="stroke: none; stroke-width: 1; stroke-dasharray: none; stroke-linecap: butt; stroke-linejoin: miter; stroke-miterlimit: 10; fill: #080303; fill-rule: nonzero; opacity: 1;" transform=" matrix(1 0 0 1 0 0) " stroke-linecap="round" />
  <polygon points="238.44,317.67 245.64,310.85 251.34,308.63 260.65,308.63 266.36,310.85 273.56,317.67 276.63,325.41 483.38,243.41 477.47,228.51 293.56,301.45 421.71,166.26 410.07,155.23 284.2,288.03 348.96,121.31 334.02,115.5 264.01,295.72 264.01,97.03 247.99,97.03 247.99,295.72 177.98,115.5 163.03,121.31 227.8,288.03 101.93,155.23 90.29,166.26 218.44,301.45 34.53,228.51 28.62,243.41 235.37,325.41 " style="stroke: none; stroke-width: 1; stroke-dasharray: none; stroke-linecap: butt; stroke-linejoin: miter; stroke-miterlimit: 10; fill: #080303; fill-rule: nonzero; opacity: 1;" transform="  matrix(1 0 0 1 0 0) "/>
</g>
  <g transform="translate(287.13 104.15) scale(1.6 1.5)">
   <text font-family="Insula" font-size="40" font-weight="bold" style="stroke: none; stroke-width: 1; stroke-dasharray: none; stroke-linecap: butt; stroke-linejoin: miter; stroke-miterlimit: 10; fill: #822282; fill-rule: nonzero; opacity: 1;" ><tspan x="-50.8" y="8.98" style="stroke: none; stroke-width: 0; stroke-dasharray: none; stroke-linecap: butt; stroke-linejoin: miter; stroke-miterlimit: 4; fill: #822282; fill-rule: ; opacity: 1;">K</tspan><tspan x="-23.04" y="8.98" style="stroke: none; stroke-width: 0; stroke-dasharray: none; stroke-linecap: butt; stroke-linejoin: miter; stroke-miterlimit: 4; fill: #822282; fill-rule: ; opacity: 1;">i</tspan><tspan x="-11.8" y="8.98" style="stroke: none; stroke-width: 0; stroke-dasharray: none; stroke-linecap: butt; stroke-linejoin: miter; stroke-miterlimit: 4; fill: #822282; fill-rule: ; opacity: 1;">t</tspan><tspan x="8.44" y="8.98" style="stroke: none; stroke-width: 0; stroke-dasharray: none; stroke-linecap: butt; stroke-linejoin: miter; stroke-miterlimit: 4; fill: #822282; fill-rule: ; opacity: 1;">a</tspan><tspan x="30.92" y="8.98" style="stroke: none; stroke-width: 0; stroke-dasharray: none; stroke-linecap: butt; stroke-linejoin: miter; stroke-miterlimit: 4; fill: #822282; fill-rule: ; opacity: 1;">b</tspan></text>
 </g>
  <g transform="translate(296.99 162.15) scale(1.6 1.5)">
   <text font-family="Insula" font-size="40" font-weight="bold" style="stroke: none; stroke-width: 1; stroke-dasharray: none; stroke-linecap: butt; stroke-linejoin: miter; stroke-miterlimit: 10; fill: #23946b; fill-rule: nonzero; opacity: 1;" ><tspan x="-43.84" y="8.98" style="stroke: none; stroke-width: 0; stroke-dasharray: none; stroke-linecap: butt; stroke-linejoin: miter; stroke-miterlimit: 4; fill: #23946b; fill-rule: ; opacity: 1;">G</tspan><tspan x="-16.84" y="8.98" style="stroke: none; stroke-width: 0; stroke-dasharray: none; stroke-linecap: butt; stroke-linejoin: miter; stroke-miterlimit: 4; fill: #23946b; fill-rule: ; opacity: 1;">h</tspan><tspan x="3.36" y="8.98" style="stroke: none; stroke-width: 0; stroke-dasharray: none; stroke-linecap: butt; stroke-linejoin: miter; stroke-miterlimit: 4; fill: #23946b; fill-rule: ; opacity: 1;">a</tspan><tspan x="25.84" y="8.98" style="stroke: none; stroke-width: 0; stroke-dasharray: none; stroke-linecap: butt; stroke-linejoin: miter; stroke-miterlimit: 4; fill: #23946b; fill-rule: ; opacity: 1;">r</tspan></text>
 </g>
</svg>